<?xml version="1.0" encoding="utf-8"?>
<!-- Generator: Adobe Illustrator 16.0.0, SVG Export Plug-In . SVG Version: 6.00 Build 0)  -->
<!DOCTYPE svg PUBLIC "-//W3C//DTD SVG 1.1//EN" "http://www.w3.org/Graphics/SVG/1.1/DTD/svg11.dtd">
<svg version="1.1" id="Layer_1" xmlns="http://www.w3.org/2000/svg" xmlns:xlink="http://www.w3.org/1999/xlink" x="0px" y="0px"
	 width="20px" height="20px" viewBox="0 0 20 20" enable-background="new 0 0 20 20" xml:space="preserve">
<path d="M12.5,11.75c0,1.379-1.121,2.5-2.5,2.5c-1.378,0-2.5-1.121-2.5-2.5c0-1.378,1.122-2.5,2.5-2.5
	C11.379,9.25,12.5,10.372,12.5,11.75z M20,11.375c0,0-3.543,7.041-9.987,7.041C4.029,18.416,0,11.375,0,11.375
	s3.705-6.292,10.013-6.292C16.424,5.083,20,11.375,20,11.375z M14.166,11.75c0-2.297-1.869-4.167-4.166-4.167
	c-2.297,0-4.167,1.869-4.167,4.167c0,2.297,1.869,4.166,4.167,4.166C12.297,15.916,14.166,14.047,14.166,11.75z"/>
</svg>
